<?xml version="1.0" encoding="UTF-8" standalone="no"?>
<!-- Created with Inkscape (http://www.inkscape.org/) -->

<svg
   xmlns:dc="http://purl.org/dc/elements/1.1/"
   xmlns:cc="http://creativecommons.org/ns#"
   xmlns:rdf="http://www.w3.org/1999/02/22-rdf-syntax-ns#"
   xmlns:svg="http://www.w3.org/2000/svg"
   xmlns="http://www.w3.org/2000/svg"
   xmlns:sodipodi="http://sodipodi.sourceforge.net/DTD/sodipodi-0.dtd"
   xmlns:inkscape="http://www.inkscape.org/namespaces/inkscape"
   width="210mm"
   height="297mm"
   viewBox="0 0 744.09448819 1052.3622047"
   id="svg2"
   version="1.1"
   inkscape:version="0.91 r13725"
   sodipodi:docname="asr.svg">
  <defs
     id="defs4" />
  <sodipodi:namedview
     id="base"
     pagecolor="#ffffff"
     bordercolor="#666666"
     borderopacity="1.0"
     inkscape:pageopacity="0.0"
     inkscape:pageshadow="2"
     inkscape:zoom="0.7"
     inkscape:cx="-690.30396"
     inkscape:cy="1063.2173"
     inkscape:document-units="px"
     inkscape:current-layer="layer1"
     showgrid="false"
     showborder="false"
     inkscape:window-width="1307"
     inkscape:window-height="744"
     inkscape:window-x="59"
     inkscape:window-y="24"
     inkscape:window-maximized="1" />
  <metadata
     id="metadata7">
    <rdf:RDF>
      <cc:Work
         rdf:about="">
        <dc:format>image/svg+xml</dc:format>
        <dc:type
           rdf:resource="http://purl.org/dc/dcmitype/StillImage" />
        <dc:title></dc:title>
      </cc:Work>
    </rdf:RDF>
  </metadata>
  <g
     inkscape:label="Layer 1"
     inkscape:groupmode="layer"
     id="layer1">
    <g
       style="font-style:normal;font-variant:normal;font-weight:normal;font-stretch:normal;font-size:273.87561035px;line-height:125%;font-family:Pacifico;-inkscape-font-specification:Pacifico;text-align:start;letter-spacing:1.82583737px;word-spacing:0px;writing-mode:lr-tb;text-anchor:start;fill:#008080;fill-opacity:1;stroke:none;stroke-width:1px;stroke-linecap:butt;stroke-linejoin:miter;stroke-opacity:1"
       id="text4154">
      <path
         d="m -1033.3459,120.10699 q -18.8974,0 -34.2344,-9.31177 -15.0632,-9.31177 -23.8272,-26.839813 -8.764,-17.801914 -8.764,-41.902968 0,-41.62909281 17.8019,-76.959047 17.8019,-35.603829 52.5841,-56.966126 34.78222,-21.636176 83.53208,-21.636176 12.59828,0 26.83981,1.91713 14.51541,1.91713 26.29206,5.75139 7.66852,2.191 7.66852,10.955024 0,7.120766 -5.47751,13.419905 -5.20364,6.299139 -12.32441,6.299139 -2.191,0 -3.2865,-0.273876 -14.24154,-3.286507 -24.37493,-4.655885 -10.1334,-1.643254 -21.3623,-1.643254 -34.7822,0 -59.15712,16.980288 -24.3749,16.706412 -36.4255,44.367849 -12.0505,27.6614365 -12.0505,59.704883 0,23.279427 9.0379,36.15158 9.3118,12.598279 24.1011,12.598279 16.7064,0 29.30464,-13.693781 12.59828,-13.693781 23.00555,-44.367849 10.40728,-30.67406825 20.54068,-83.258185 1.64325,-7.668518 6.57301,-10.407274 4.92976,-2.738756 13.14603,-2.738756 19.44517,0 19.44517,12.598278 0,2.191005 -0.82163,5.477513 -7.12077,26.565934 -13.14603,58.883256 -5.75139,32.043446 -5.75139,48.749858 0,14.789283 4.38201,21.636174 4.38201,6.573014 13.41991,6.573014 8.76402,0 16.70641,-5.751388 7.94239,-6.025263 19.99292,-20.266795 3.28651,-3.834258 7.39464,-3.834258 3.56038,0 5.47751,3.286507 2.19101,3.286507 2.19101,9.037895 0,10.681149 -5.20364,16.980288 -13.4199,16.158661 -26.29206,24.648801 -12.87215,8.49015 -31.49569,8.49015 -19.17129,0 -30.94795,-10.95503 -11.77665,-11.228897 -14.78928,-31.495692 -20.26679,42.450722 -59.70492,42.450722 z"
         id="path4159"
         style="" />
      <path
         d="m -809.09024,120.92861 q -36.42546,0 -58.33551,-13.69378 -21.91005,-13.967652 -21.91005,-42.450715 0,-15.063159 5.20364,-23.005552 5.20364,-7.942392 15.33703,-7.942392 7.39465,0 12.05053,3.834258 4.65589,3.834259 4.65589,9.859522 0,5.477512 -0.82163,9.585647 0,1.095502 -0.54775,3.834258 -0.27388,2.738756 -0.27388,5.751388 0,12.324402 12.3244,18.349666 12.59828,6.025263 35.05608,6.025263 23.27943,0 36.42546,-8.216268 13.14603,-8.490144 13.14603,-23.553303 0,-9.31177 -6.02527,-15.884785 -6.02526,-6.84689 -15.06315,-11.2289 -9.0379,-4.655885 -25.47044,-11.2289 -21.08842,-8.216268 -34.50832,-15.6109098 -13.14603,-7.3946415 -22.73168,-19.9929192 -9.31177,-12.872154 -9.31177,-31.769571 0,-19.719044 10.40727,-35.056078 10.68115,-15.337034 30.4002,-23.827179 19.99292,-8.49014 46.83273,-8.49014 19.99292,0 36.69933,6.02526 16.70641,5.75139 26.56593,17.801915 10.1334,12.050527 10.1334,29.578566 0,17.254163 -5.20364,26.018183 -5.20363,8.764019 -15.33703,8.764019 -7.12077,0 -12.05053,-4.38201 -4.65588,-4.382009 -4.65588,-10.407273 0,-5.203636 0.82162,-9.585646 0.82163,-8.216268 0.82163,-10.407273 0,-11.502776 -11.2289,-17.528039 -11.2289,-6.025264 -27.93531,-6.025264 -23.5533,0 -36.15158,8.76402 -12.3244,8.490144 -12.3244,24.101053 0,10.407274 6.29913,17.801915 6.57302,7.394642 16.15867,12.324403 9.58564,4.929761 26.83981,11.7766508 20.81454,8.49014395 33.41282,15.3370342 12.59828,6.84689 21.3623,18.623542 9.03789,11.776651 9.03789,29.030814 0,32.317322 -24.6488,49.84536 -24.37493,17.25416 -65.45627,17.25416 z"
         id="path4161"
         style="" />
      <path
         d="m -438.25552,57.663349 c 2.37359,0 4.19943,1.095502 5.47752,3.286507 1.46067,2.191005 2.191,5.203636 2.191,9.037895 0,7.120766 -5.20364,16.980288 -5.20364,16.980288 -8.76402,10.589854 -17.61933,18.806121 -26.56593,24.648801 -8.94661,5.6601 -19.53646,8.49015 -31.76957,8.49015 -11.86795,0 -22.00134,-3.19522 -30.40019,-9.58565 -8.21627,-6.39043 -16.06738,-17.345451 -23.55331,-32.865072 -6.02526,-12.415694 -10.77244,-21.544881 -14.24153,-27.387561 -3.46909,-6.025263 -6.93818,-10.315981 -10.40727,-12.872153 -3.28651,-2.556173 -7.39464,-4.108135 -12.3244,-4.655886 -0.73034,3.834259 -2.83005,15.884786 -6.29914,36.151581 -1.46067,9.129187 -2.37359,14.697991 -2.73876,16.706412 -1.82583,11.137606 -5.47751,19.719039 -10.95502,25.744309 -5.47751,5.84268 -13.78507,8.76402 -24.92268,8.76402 -12.23311,0 -23.09685,-3.56038 -32.5912,-10.68115 -9.31177,-7.30335 -16.52383,-17.345456 -21.63617,-30.126318 -5.11235,-12.963445 -7.66852,-27.661436 -7.66852,-44.093973 0,-30.6740687 5.29493,-57.148711 15.88478,-79.423927 10.77244,-22.275217 25.74431,-39.255505 44.9156,-50.940864 19.35388,-11.867948 41.6291,-17.801918 66.82565,-17.801918 17.52804,0 32.22603,2.64747 44.09398,7.9424 11.86794,5.294926 20.63196,12.598274 26.29205,21.910045 5.84268,9.311771 8.76402,19.810336 8.76402,31.495695 0,10.224689 -2.46488,20.266795 -7.39464,30.126317 -4.74717,9.676938 -11.95923,18.2583744 -21.63617,25.7443077 -9.67694,7.4859333 -21.45359,13.0547373 -35.32995,16.7064123 8.76402,2.373589 15.51962,6.207847 20.26679,11.502776 4.74718,5.294928 9.49436,13.054737 14.24153,23.279426 5.11235,10.955025 10.1334,18.988709 15.06316,24.101054 5.11235,5.112345 10.95503,7.668517 17.52804,7.668517 5.84268,0 11.41148,-1.917129 16.70641,-5.751388 5.29493,-4.016842 11.95924,-10.77244 19.99292,-20.266795 2.19101,-2.556172 4.65589,-3.834258 7.39464,-3.834258 z M -622.84768,32.466793 c -6.20785,0 -10.49856,-1.46067 -12.87215,-4.38201 -2.19101,-2.92134 -3.28651,-6.207847 -3.28651,-9.859522 0,-4.38201 1.36938,-7.851101 4.10814,-10.4072733 2.92134,-2.5561724 6.20785,-3.8342586 9.85952,-3.8342586 l 6.84689,0 c 2.92134,-17.8932071 5.6601,-33.3215331 8.21627,-46.2849781 2.37359,-11.867943 10.0421,-17.801915 23.00555,-17.801915 10.40727,0 15.61091,4.655885 15.61091,13.967656 0,2.008421 -0.0913,3.560383 -0.27388,4.655886 l -8.21627,45.4633511 c 9.85953,-0.5477512 18.80613,-2.9213398 26.83981,-7.1207658 8.21627,-4.1994261 14.698,-10.0421063 19.44517,-17.5280393 4.92976,-7.485933 7.39464,-15.976077 7.39464,-25.470432 0,-11.502775 -3.92555,-20.54067 -11.77665,-27.113685 -7.8511,-6.573015 -19.35388,-9.859522 -34.50833,-9.859522 -17.89321,0 -33.59541,4.473302 -47.1066,13.419905 -13.32861,8.764019 -23.73589,21.910049 -31.22182,39.438088 -7.48593,17.345455 -11.2289,38.5251689 -11.2289,63.539141 0,11.685359 1.18679,21.727465 3.56038,30.126318 2.37359,8.398852 5.29493,14.697991 8.76402,18.897417 3.46909,4.199426 6.7556,6.299139 9.85952,6.299139 2.37359,0 4.29072,-1.186794 5.75139,-3.560383 1.64325,-2.373589 2.92134,-6.207847 3.83426,-11.502776 z"
         id="path4163"
         inkscape:connector-curvature="0"
         sodipodi:nodetypes="scsccsccccccccsccsccsscscscsccsccsccscsccssccccsssccssssccc" />
    </g>
    <path
       style="fill:none;fill-rule:evenodd;stroke:#008080;stroke-width:28;stroke-linecap:round;stroke-linejoin:round;stroke-miterlimit:4;stroke-dasharray:none;stroke-opacity:1"
       d="m -449.58968,84.116122 c 44.11155,-40.361981 27.07522,-317.283912 -224.18207,-305.556272 0,0 -154.97431,-21.54242 -224.75894,134.350283"
       id="path4165"
       inkscape:connector-curvature="0"
       sodipodi:nodetypes="ccc" />
  </g>
</svg>
