<?xml version="1.0" encoding="UTF-8" standalone="no"?>
<!-- Created with Inkscape (http://www.inkscape.org/) -->

<svg
   xmlns:dc="http://purl.org/dc/elements/1.1/"
   xmlns:cc="http://creativecommons.org/ns#"
   xmlns:rdf="http://www.w3.org/1999/02/22-rdf-syntax-ns#"
   xmlns:svg="http://www.w3.org/2000/svg"
   xmlns="http://www.w3.org/2000/svg"
   xmlns:sodipodi="http://sodipodi.sourceforge.net/DTD/sodipodi-0.dtd"
   xmlns:inkscape="http://www.inkscape.org/namespaces/inkscape"
   width="998.461"
   height="532.75751"
   viewBox="0 0 998.46102 532.75751"
   id="svg4149"
   version="1.1"
   inkscape:version="0.48.4 r9939"
   sodipodi:docname="logo.svg">
  <defs
     id="defs4151" />
  <sodipodi:namedview
     id="base"
     pagecolor="#ffffff"
     bordercolor="#666666"
     borderopacity="1.0"
     inkscape:pageopacity="0.0"
     inkscape:pageshadow="2"
     inkscape:zoom="0.70710678"
     inkscape:cx="679.67109"
     inkscape:cy="341.70578"
     inkscape:document-units="px"
     inkscape:current-layer="layer1"
     showgrid="false"
     inkscape:object-paths="false"
     inkscape:snap-intersection-paths="false"
     inkscape:object-nodes="false"
     inkscape:snap-smooth-nodes="false"
     inkscape:snap-bbox="true"
     inkscape:window-width="1301"
     inkscape:window-height="744"
     inkscape:window-x="65"
     inkscape:window-y="24"
     inkscape:window-maximized="1"
     fit-margin-top="0"
     fit-margin-left="0"
     fit-margin-right="0"
     fit-margin-bottom="0" />
  <metadata
     id="metadata4154">
    <rdf:RDF>
      <cc:Work
         rdf:about="">
        <dc:format>image/svg+xml</dc:format>
        <dc:type
           rdf:resource="http://purl.org/dc/dcmitype/StillImage" />
      </cc:Work>
    </rdf:RDF>
  </metadata>
  <g
     inkscape:label="Layer 1"
     inkscape:groupmode="layer"
     id="layer1"
     transform="translate(-17.906039,-352.81806)">
    <g
       id="g4743"
       style="fill:#ffffff;fill-opacity:1;stroke:#ffffff;stroke-opacity:1"
       transform="matrix(1.362309,0,0,1.362309,6.4478288,-232.08072)">
      <g
         transform="matrix(1.8743908,0,0,1.8743908,-345.81514,-440.97691)"
         id="text4697"
         style="font-size:150px;font-style:normal;font-variant:normal;font-weight:normal;font-stretch:normal;text-align:start;line-height:125%;letter-spacing:1px;word-spacing:0px;writing-mode:lr-tb;text-anchor:start;fill:#ffffff;fill-opacity:1;stroke:#ffffff;stroke-width:10.67013359000000072;stroke-linecap:butt;stroke-linejoin:miter;stroke-miterlimit:4;stroke-opacity:1;stroke-dasharray:none;font-family:Roboto;-inkscape-font-specification:'Roboto, Normal'">
        <path
           inkscape:connector-curvature="0"
           id="path4702"
           d="m 231,667.11218 c -21.63437,1.14686 -37.88505,-20.82408 -36.61678,-41.21269 -1.9338,-38.06634 24.23247,-77.65236 62.94602,-84.48054 17.25504,-3.77224 35.58023,-3.01618 52.30826,2.76823 8.75012,18.52332 -18.81772,16.91429 -29.22066,12.34767 -25.33263,-2.55013 -51.66845,13.20772 -59.01266,38.06116 -5.68371,15.9654 -8.64699,36.17921 2.05582,50.62416 14.13909,11.72685 31.89257,-2.93335 35.92839,-17.54882 8.49707,-18.73914 10.94359,-39.37393 16.46161,-59.03417 14.62246,-13.47598 26.50432,9.0395 16.16624,20.85606 -3.47377,17.35074 -8.89943,35.37232 -5.60351,53.07344 9.31658,19.12314 26.11673,-10.13115 34.60618,-7.4865 6.75626,17.04259 -16.50227,31.78237 -31.62728,32.19957 -13.42133,1.15409 -23.56497,-10.78593 -26.45656,-21.5146 -6.52591,12.44081 -16.91792,21.83246 -31.93507,21.34703 z"
           style="font-style:normal;font-variant:normal;font-weight:normal;font-stretch:normal;fill:#ffffff;fill-opacity:1;stroke:#ffffff;stroke-width:10.67013359000000072;stroke-miterlimit:4;stroke-opacity:1;stroke-dasharray:none;font-family:Pacifico;-inkscape-font-specification:Pacifico" />
        <path
           inkscape:connector-curvature="0"
           id="path4704"
           d="m 353.82344,667.56218 c -18.53499,1.0361 -43.24051,-6.97458 -44.27301,-28.83277 -5.13607,-18.80597 24.54039,-26.51011 20.18647,-4.07483 -1.02092,19.97039 24.81724,17.34094 38.04342,15.2726 23.42446,-4.51456 13.82791,-33.74032 -6.07799,-35.1924 -17.00087,-6.23334 -39.26204,-14.56611 -41.17345,-35.51146 -2.836,-21.39014 17.50171,-38.47149 37.4969,-39.55723 17.92488,-2.44526 41.5751,0.83181 49.31016,19.74609 8.86702,11.70355 -8.28727,40.17601 -17.64364,21.2502 2.50941,-17.54962 -10.70265,-29.98211 -28.11779,-25.05552 -19.5148,-1.70995 -28.32164,26.05121 -9.13551,33.69762 17.09826,9.39916 41.42434,12.25611 49.49295,32.65542 7.21012,21.20957 -11.42951,42.47878 -32.38466,44.24755 -5.17999,0.97341 -10.45787,1.35217 -15.72385,1.35473 z"
           style="font-style:normal;font-variant:normal;font-weight:normal;font-stretch:normal;fill:#ffffff;fill-opacity:1;stroke:#ffffff;stroke-width:10.67013359000000072;stroke-miterlimit:4;stroke-opacity:1;stroke-dasharray:none;font-family:Pacifico;-inkscape-font-specification:Pacifico" />
        <path
           inkscape:connector-curvature="0"
           id="path4706"
           d="m 559.04866,628.31599 c 8.72578,17.93421 -12.6653,36.91914 -29.55437,38.86717 -18.6609,2.17501 -30.47344,-14.69863 -36.06462,-30.1522 -2.87549,-13.29005 -20.5837,-24.69981 -19.61642,-3.73446 -0.70737,14.27447 -4.17653,35.9273 -23.27702,33.87784 -21.77144,-0.8302 -32.61173,-24.65392 -32.47779,-43.84194 -1.40933,-28.68695 8.91435,-60.28083 35.0487,-75.25025 18.76427,-10.11024 43.34048,-12.27964 62.64286,-2.36217 17.97673,9.52286 19.95008,35.18529 7.53875,50.00329 -4.83418,9.76852 -19.71248,13.01642 -24.96671,18.02742 18.14887,4.73069 15.02567,32.55397 34.13553,35.582 12.56087,0.005 18.59589,-13.56345 26.59109,-21.0167 z m -103.22132,-9.20381 c -16.12247,-0.86681 -3.72389,-17.33198 3.45119,-19.58782 -0.0716,-12.58545 5.07037,-39.54019 22.7123,-28.43819 4.30267,10.1219 -1.55258,20.78808 -2.39017,31.19033 14.19543,4.27802 35.48284,-16.4169 28.00936,-33.48619 -7.04462,-16.08807 -28.82787,-14.89077 -42.73465,-9.60887 -23.02922,9.88291 -31.22624,37.12825 -30.49387,60.31754 -2.25256,9.48163 6.67618,39.90116 16.96953,24.47475 1.4902,-8.28294 2.97637,-16.57251 4.47631,-24.86155 z"
           style="font-style:normal;font-variant:normal;font-weight:normal;font-stretch:normal;fill:#ffffff;fill-opacity:1;stroke:#ffffff;stroke-width:10.67013359000000072;stroke-miterlimit:4;stroke-opacity:1;stroke-dasharray:none;font-family:Pacifico;-inkscape-font-specification:Pacifico" />
      </g>
      <path
         inkscape:connector-curvature="0"
         id="path4715"
         d="m 317.9583,586.03942 c 26.70098,4.79617 27.36665,-34.70441 45.26569,-48.45884 55.27935,-71.91921 163.23283,-94.01303 242.40339,-49.93336 67.3138,34.25602 107.69373,110.69197 101.68419,185.43771 -1.352,30.59306 -11.23576,60.02632 -24.46767,87.3339 21.24146,29.05496 33.41103,-22.33199 39.95843,-38.93351 25.14868,-75.11599 6.74753,-163.80346 -50.88889,-219.25808 -65.84319,-68.16748 -176.80063,-85.35711 -260.13974,-40.18187 -44.89197,23.75799 -83.21163,63.03897 -101.02319,110.92574 -0.34285,5.25761 2.55923,10.56264 7.20779,13.06831 z"
         style="font-size:medium;font-style:normal;font-variant:normal;font-weight:normal;font-stretch:normal;text-indent:0;text-align:start;text-decoration:none;line-height:normal;letter-spacing:normal;word-spacing:normal;text-transform:none;direction:ltr;block-progression:tb;writing-mode:lr-tb;text-anchor:start;baseline-shift:baseline;color:#000000;fill:#ffffff;fill-opacity:1;fill-rule:nonzero;stroke:#ffffff;stroke-width:15;stroke-linecap:round;stroke-linejoin:round;stroke-miterlimit:4;stroke-opacity:1;stroke-dasharray:none;stroke-dashoffset:0;visibility:visible;display:inline;overflow:visible;enable-background:accumulate;font-family:sans-serif" />
    </g>
  </g>
</svg>
